# xmcd CD database file
#
# Track frame offsets:
#	150
#	24947
#	45966
#	65556
#	85050
#	107885
#	132579
#	150569
#	170283
#	194625
#	196107
#	225342
#
# Disc length: 3281 seconds
#
# Revision: 10
# Processed by: cddbd v1.5PL3 Copyright (c) Steve Scherf et al.
# Submitted via: CDex 1.51
#
DISCID=910ccf0c
DTITLE=宇多田ヒカル - First Love
DYEAR=1999
DGENRE=JPop
TTITLE0=Automatic (Album Edit)
TTITLE1=Movin'on without you
TTITLE2=In My Room
TTITLE3=First Love
TTITLE4=甘いワナ 〜Paint It, Black
TTITLE5=time will tell
TTITLE6=Never Let Go
TTITLE7=B&C (Album Version)
TTITLE8=Another Chance
TTITLE9=Interlude
TTITLE10=Give Me A Reason
TTITLE11=Automatic (Johnny Vicious Remix)
EXTD=
EXTT0=
EXTT1=
EXTT2=
EXTT3=
EXTT4=
EXTT5=
EXTT6=
EXTT7=
EXTT8=
EXTT9=
EXTT10=
EXTT11=
PLAYORDER=
